<svg width="578.000000" height="986.000000" viewBox="0 0 578 986" fill="none" xmlns="http://www.w3.org/2000/svg" xmlns:xlink="http://www.w3.org/1999/xlink">
	<desc>
			Created with Pixso.
	</desc>
	<defs/>
	<path id="Combined Shape" d="M114.226 420.768C114.296 421.529 114.364 422.266 114.423 422.921C116.754 420.592 118.962 418.387 121.658 415.693C121.653 415.797 121.649 415.864 121.649 415.865C121.649 415.865 121.652 415.814 121.658 415.693L121.658 415.693C121.665 415.557 121.676 415.356 121.686 415.154C122.672 414.087 124.154 413.169 124.554 411.907C125.399 409.244 127.232 407.071 127.897 404.43C130.109 401.857 133.083 400.009 134.295 396.617C134.545 395.917 135.287 394.899 136.535 394.97C136.949 394.994 137.749 394.663 137.751 394.488C137.77 392.516 139.639 391.758 140.355 390.338C141.226 388.611 142.457 387.223 143.472 385.667C144.358 384.31 144.888 382.746 146.198 381.611C147.505 380.479 148.668 379.181 149.915 377.936L149.915 373.533C151.63 372.13 151.396 369.388 153.573 368.339C154.249 365.909 156.143 364.392 157.753 362.63C159.197 361.05 160.945 359.817 161.939 357.698C162.833 355.794 164.653 354.324 166.239 352.457L166.239 349.536C167.455 348.699 168.778 347.789 170.563 346.56L170.563 341.053C171.329 340.186 171.807 339.645 172.239 339.156L172.239 335.104C172.546 334.7 172.971 334.14 173.559 333.367C173.657 332.462 173.784 331.292 173.902 330.204C174.854 329.253 175.73 328.378 176.553 327.556C175.994 326.567 175.444 325.596 174.691 324.264C176.519 323.916 177.877 323.658 179.252 323.397C179.589 322.958 179.728 322.566 179.728 322.207C179.728 321.494 179.182 320.907 178.543 320.325C177.839 319.682 177.192 318.977 176.641 318.421C176.786 317.663 176.875 317.205 177.002 316.543C177.603 316.42 178.281 316.281 179.097 316.113C179.66 315.537 179.797 314.878 179.797 314.149C179.797 313.816 179.768 313.468 179.738 313.107C179.706 312.718 179.673 312.313 179.673 311.895C179.673 311.554 179.695 311.205 179.758 310.847C180.605 310.179 181.762 309.269 182.651 308.568L182.651 305.153C183.166 304.599 183.663 304.063 184.383 303.288C183.485 301.523 182.549 299.685 181.348 297.322C182.295 296.909 183.638 296.323 184.099 296.121L184.099 284.44C185.13 283.36 186.138 282.3 187.162 281.227L187.162 276.849C187.566 276.444 187.917 276.095 188.317 275.693C188.176 275.376 188.1 274.963 187.859 274.707C186.892 273.679 185.875 272.7 184.877 271.703C184.544 272.036 184.222 272.207 184.216 272.387C184.195 273.164 184.19 273.941 184.19 274.713C184.19 275.062 184.191 275.41 184.192 275.757C184.193 276.1 184.194 276.443 184.194 276.783C182.958 277.526 181.694 278.125 180.628 278.972C179.473 279.891 178.503 281.043 177.176 282.368C176.269 281.212 175.362 280.056 174.669 279.172C173.54 279.046 172.704 279.631 171.927 280.174C171.036 280.797 170.224 281.365 169.138 280.748C166.309 283.575 163.531 286.35 160.729 289.149C160.844 289.276 161.31 289.801 161.775 290.327C160.898 291.203 160.022 292.078 159 293.097L159 297.872C158.038 298.514 156.809 299.331 155.937 299.911L155.937 304.68C154.865 306.524 153.934 308.128 152.874 309.952L152.874 314.073C152.028 314.964 151.058 314.862 150.115 314.763C149.393 314.687 148.686 314.613 148.062 314.987C147.34 314.344 146.799 313.863 146.197 313.328L142.987 313.328C142.21 314.483 141.31 315.818 140.088 317.632C139.025 317.69 137.358 317.78 135.691 317.869C135.341 318.22 134.991 318.569 134.379 319.181L126.944 319.181C126.331 319.793 125.981 320.144 125.619 320.505C124.713 320.422 124.637 319.922 124.637 319.368C124.637 319.312 124.638 319.256 124.638 319.199C124.639 319.142 124.64 319.085 124.64 319.028C124.64 318.797 124.627 318.571 124.549 318.373C123.615 317.517 122.537 317.618 121.425 317.722C120.804 317.781 120.173 317.84 119.551 317.734C119.077 317.309 118.538 316.826 117.943 316.294L112.118 316.294C111.553 315.774 111.016 315.278 110.459 314.765L106.091 314.765C105.513 314.24 104.974 313.751 104.405 313.235L100.059 313.235L95.7639 308.945C95.4807 309.24 95.1502 309.505 94.936 309.845C94.9055 309.893 94.8956 309.953 94.8956 310.019C94.8956 310.079 94.9036 310.143 94.9117 310.208C94.9199 310.275 94.9282 310.342 94.9282 310.405C94.9282 310.464 94.9211 310.519 94.9 310.568C94.7198 310.99 94.449 311.372 94.204 311.791L91.2366 311.791C90.1987 310.804 89.1381 309.798 88.1312 308.841L85.7825 308.841C84.7972 309.387 83.7964 309.943 82.7533 310.522C82.0707 309.979 81.5167 309.537 80.7723 308.945L72.4188 308.945C70.5717 307.899 68.9613 306.986 67.319 306.055C66.7393 306.495 66.0114 307.048 65.41 307.506C64.679 307.163 64.1816 307.055 63.8645 306.756C62.6022 305.568 61.3965 304.322 60.0714 302.997L57.4087 302.997C57.2045 302.841 56.9978 302.69 56.7935 302.54C55.5845 301.655 54.4596 300.831 54.4596 299.42C54.4596 299.147 54.5018 298.852 54.5936 298.53C54.0425 298.461 53.5348 298.448 53.0603 298.436C51.8666 298.406 50.8835 298.382 49.95 297.484C49.0222 296.591 47.4963 296.343 46.3091 295.552C45.9391 295.305 45.4517 295.337 44.939 295.37C44.2343 295.415 43.4823 295.463 42.9236 294.795C43.8874 293.602 44.118 293.098 44.3528 291.564C43.5167 291.274 42.6539 290.976 41.7911 290.676C41.3246 288.094 39.2952 286.691 37.7363 285.242C36.856 285.006 36.1908 284.827 35.5103 284.644C36.4966 282.901 37.3914 281.321 38.3901 279.556L38.3901 276.924C37.8619 276.339 37.3749 275.8 36.684 275.036C37.0753 274.276 37.4954 273.463 38.3706 271.764L38.3706 268.019C39.2413 267.154 40.1152 267.219 40.9346 267.279C41.3393 267.309 41.7302 267.338 42.101 267.254C42.6343 267.738 43.1533 268.208 43.8339 268.827C44.0758 268.031 44.2756 267.373 44.4702 266.733C43.9049 266.111 43.4158 265.573 42.8712 264.975C44.0975 263.815 45.3454 262.635 46.6242 261.426C47.0608 261.822 47.5807 262.293 48.1007 262.765C48.4436 262.423 48.7936 262.073 49.1448 261.725C51.6859 261.33 54.0747 260.527 56.2431 259.091L56.2431 257.627C58.0739 256.805 58.0739 256.805 59.8458 258.201C60.1331 257.926 60.6654 257.656 60.6768 257.367C60.7151 256.369 60.7245 255.369 60.7245 254.444C60.7245 253.972 60.722 253.519 60.7198 253.095C60.7178 252.723 60.7159 252.375 60.7159 252.055C62.1893 250.382 63.326 249.09 64.3938 247.876L71.9266 247.876C72.8605 246.944 73.7357 246.068 74.7345 245.071C75.2184 245.464 75.7157 245.867 76.3232 246.361C77.3044 245.427 78.33 244.452 79.374 243.458L82.2961 243.458L85.2059 240.552L90.1008 240.552C90.2821 239.655 90.42 238.977 90.5889 238.144C91.7184 237.006 94.1638 237.338 94.7383 235.123C94.7056 235.093 94.6727 235.062 94.6398 235.032C94.0338 234.481 93.4235 233.925 93.4235 233.106C93.4235 232.745 93.5425 232.332 93.8333 231.846C94.3409 231.761 95.0164 231.649 95.8298 231.516C96.1583 232.456 96.46 233.317 96.7616 234.179C101.504 231.889 101.504 231.889 103.01 228.671C103.542 229.143 104.058 229.602 104.614 230.095L109.357 230.095L110.283 225.406L111.829 226.95L115.177 226.95C115.492 226.635 115.842 226.286 116.335 225.794L120.893 225.794C121.159 226.007 121.712 226.452 122.276 226.906C123.175 226.404 124.125 225.872 125.734 224.975C126.037 224.363 126.709 223.015 127.372 221.68C126.988 221.297 126.638 220.946 126.215 220.524L126.215 217.473C128.136 216.87 129.765 215.564 131.147 213.938L134.511 213.938C134.982 214.469 135.157 214.905 135.157 215.274C135.157 215.872 134.699 216.296 134.29 216.676C134.013 216.932 133.759 217.168 133.684 217.423L133.684 220.865C134.424 221.018 135.1 221.158 135.624 221.266C137.49 219.393 139.232 217.643 140.989 215.879L140.989 213.216C140.331 212.298 139.793 211.548 139.307 210.869C140.339 208.759 142.006 207.682 143.38 206.34C144.606 206.527 145.274 205.88 146.054 205.124C146.667 204.531 147.35 203.869 148.427 203.493L152.323 203.493C153.013 202.518 153.865 201.317 154.49 200.433L158.067 200.433C158.553 200.881 159.086 201.372 159.619 201.864C160.845 200.639 162.071 199.414 163.307 198.179L163.307 196.724C163.902 195.904 164.689 195.938 165.47 195.973C165.887 195.991 166.302 196.009 166.686 195.898C167.438 195.679 168.072 195.051 169.023 194.434C169.11 195.491 169.166 196.163 169.236 197.014C168.483 197.202 167.814 197.369 167.049 197.561C166.696 198.258 166.483 198.679 166.483 199.074C166.483 199.095 166.484 199.115 166.485 199.136C166.517 199.713 167.017 200.265 168.214 201.586C170.219 200.771 172.394 200.182 173.639 198.083C172.767 197.212 171.891 196.337 170.767 195.214C172.466 193.73 173.593 191.798 176.154 191.158C177.812 190.745 177.978 188.55 178.796 187.151C179.285 187.109 179.764 187.068 180.403 187.014C181.999 185.306 183.679 183.508 185.576 181.477C185.579 181.415 185.601 180.929 185.627 180.407C186.105 179.896 186.604 179.361 187.117 178.812L187.117 175.871C190.541 174.821 192.52 172.317 193.895 169.206C194.383 169.183 194.869 169.161 195.533 169.13C195.727 168.531 195.938 167.877 196.242 166.939C195.105 166.044 193.948 165.135 193.071 164.445L193.071 162.201C194.397 161.962 195.76 161.718 197.318 161.438C197.492 160.453 197.532 159.458 197.532 158.458C197.532 158.038 197.525 157.617 197.518 157.196L197.518 157.195C197.51 156.773 197.503 156.352 197.503 155.93C197.503 155.113 197.53 154.297 197.635 153.486C199.037 152.086 200.296 150.491 201.881 149.342C203.381 148.253 205.38 147.861 206.435 146.119C206.519 145.887 206.556 145.679 206.556 145.488C206.556 144.824 206.114 144.372 205.672 143.919C205.396 143.637 205.12 143.355 204.951 143.021L204.951 139.034C204.666 138.648 204.25 138.085 203.593 137.199C203.406 136.807 203.325 136.422 203.325 136.038C203.325 134.889 204.055 133.758 204.841 132.54C204.914 132.427 204.987 132.313 205.06 132.199C204.555 131.282 204.003 130.28 203.278 128.964C203.737 128.329 204.279 127.582 204.933 126.679L204.933 123.927C204.456 123.41 203.96 122.872 203.491 122.365L203.491 120.896C203.867 120.521 204.217 120.17 204.773 119.616C204.941 118.805 204.985 117.962 204.985 117.103C204.985 116.625 204.971 116.143 204.958 115.659C204.944 115.171 204.93 114.681 204.93 114.192C204.93 113.441 204.963 112.693 205.078 111.958C205.588 111.351 206.048 110.804 206.444 110.332C206.436 109.521 206.022 108.843 205.607 108.163C205.183 107.469 204.757 106.771 204.757 105.925C204.757 105.513 204.858 105.065 205.11 104.565C205.358 104.277 205.824 103.73 206.38 103.08L206.38 100.163C205.98 99.7246 205.488 99.1875 204.966 98.6157L204.966 95.6929C205.45 95.1714 205.947 94.6357 206.409 94.1367L206.409 77.6318C205.566 77.3367 204.704 77.0354 203.788 76.7146C203.835 75.4075 205.095 74.9961 205.628 74.2595C206.422 74.0857 207.095 73.9377 207.692 73.8071C207.705 73.7261 207.719 73.6455 207.732 73.5654C207.84 72.9021 207.944 72.2649 207.944 71.668C207.944 70.6309 207.63 69.7151 206.477 68.9939C207.446 67.957 208.406 66.9329 209.363 65.9084C208.464 65.0115 207.589 64.1365 206.576 63.1243L206.576 54.4585C206.076 53.8425 205.628 53.2913 205.045 52.5732L205.045 48.6003C204.079 46.4766 202.126 46.0466 200.496 45.1682C200.494 43.6843 200.494 42.2002 200.494 40.7407C200.981 40.209 201.456 39.6887 201.81 39.3008C200.93 37.8198 200.026 36.4592 199.303 35.009C199.004 34.4084 199.212 33.5723 198.981 32.9163C198.294 30.9622 197.291 29.1221 197.121 26.989C197.092 26.6138 196.466 26.2847 196.073 25.8916L196.073 21.4868C197.727 20.3894 197.305 17.9292 199.049 16.7825L199.049 7.95117C200.057 7.05786 201.175 7.16138 202.286 7.26416C202.875 7.3186 203.462 7.3728 204.029 7.27856C204.347 7.44263 204.619 7.70288 204.893 7.96533C205.497 8.5437 206.111 9.13159 207.252 8.71826C207.691 7.78662 208.171 6.76929 208.643 5.7688L210.182 5.7688C210.909 5.04248 211.61 4.34326 212.31 3.64282C212.371 2.47144 212.431 1.30005 212.498 0L220.67 0C222.279 1.06348 222.566 2.80981 223.458 4.25073L226.472 4.25073C226.957 5.25854 227.442 6.26636 227.923 7.26611L230.098 7.26611C230.761 7.96655 231.735 8.9939 232.608 9.91455C233.306 9.47437 234.083 8.98462 235.331 8.19897C236.139 9.70044 236.854 11.0273 237.208 11.6843L243.175 11.6843C244.311 12.9277 245.408 14.7935 247.039 15.7087C248.491 16.5244 250.008 17.0984 251.066 18.5042L251.066 21.418C251.693 22.2498 252.494 22.2021 253.358 22.1509C253.801 22.1245 254.261 22.0972 254.723 22.1873C255.289 22.7148 255.995 23.375 256.947 24.2637L256.947 28.9082C258.416 29.7188 260.043 29.7043 260.794 31.137C261.559 32.5984 263.896 32.0728 264.243 33.2761C264.601 34.5134 265.079 35.4502 265.917 36.3142C265.791 36.5684 265.737 36.7942 265.737 36.9993C265.737 37.5779 266.166 37.9907 266.596 38.4036C267.026 38.8167 267.456 39.2297 267.456 39.8093C267.456 39.9182 267.441 40.033 267.407 40.1545C267.296 40.7334 266.867 41.2092 266.42 41.7061C265.843 42.3459 265.236 43.0205 265.236 43.9941C265.236 44.3406 265.313 44.7249 265.495 45.1589C266.729 45.9685 267.962 46.7778 268.831 47.3486L268.831 50.9175C270.041 51.6589 271.158 52.4541 272.37 53.0598C273.713 53.7324 273.265 55.1733 273.861 56.1873C274.948 58.0386 275.916 59.9197 277.714 61.3574L277.714 65.5381C278.354 66.4309 278.893 67.1838 279.305 67.7585C279.275 70.0779 276.969 70.4163 276.335 72.5215C276.41 72.7065 276.489 73.5664 276.956 73.9377C278.17 74.9014 277.739 76.5933 278.931 77.6699C279.277 77.9827 279.341 78.6072 279.341 79.2566C279.341 79.4512 279.335 79.6479 279.33 79.8396C279.324 80.0208 279.319 80.1968 279.319 80.3613C279.319 80.5115 279.323 80.6519 279.336 80.7781L277.907 82.2056L277.907 86.4233C276.286 87.5012 274.76 88.5151 273.216 89.5437C273.866 90.2429 274.363 90.7759 274.929 91.3826C274.81 94.6006 270.875 95.2434 270.263 98.3701C269.713 101.173 265.6 100.619 264.434 103.249C264.47 103.501 264.487 103.746 264.487 103.986C264.487 105.57 263.747 106.912 263.006 108.254C262.734 108.746 262.462 109.239 262.227 109.743L262.178 109.848C261.788 110.683 261.651 110.976 261.651 111.91C261.651 112.348 261.681 112.926 261.729 113.767C262.08 114.117 262.43 114.468 262.944 114.98C261.772 116.15 260.784 117.875 259.377 118.342C257.888 118.835 256.869 119.611 255.489 120.927C255.501 121.101 255.504 121.292 255.504 121.495C255.504 121.57 255.503 121.645 255.503 121.722L255.503 121.722C255.503 121.802 255.502 121.883 255.502 121.965C255.502 122.642 255.527 123.395 255.782 124.059C255.896 124.356 256.114 124.61 256.336 124.869C256.675 125.264 257.024 125.669 257.024 126.255C257.024 126.341 257.016 126.431 257 126.525C256.961 126.752 256.941 126.971 256.941 127.181C256.941 128.207 257.405 129.045 258.359 129.663C256.852 130.666 255.368 131.653 254.035 132.54L254.035 141.725C255.021 143.246 256.505 143.945 258.323 144.405L258.323 147.844C257.266 149.04 255.907 147.956 253.352 149.399C253.466 149.347 253.908 150.061 253.908 151.198C253.908 151.611 253.85 152.08 253.696 152.589C253.155 152.982 251.964 153.847 251.073 154.492L251.073 156.715L253.536 157.573C253.699 158.001 253.997 158.427 254 158.857C254.02 161.239 254.025 163.62 254.025 165.996C254.025 166.905 254.024 167.813 254.023 168.721L254.023 168.722C254.023 169.626 254.022 170.529 254.022 171.43L255.351 172.758C255.43 173.668 255.531 174.84 255.645 176.15C256.451 176.442 257.311 176.753 258.434 177.159L258.434 186.242C259.281 187.099 260.136 187.057 261.003 187.013C261.461 186.99 261.922 186.967 262.388 187.076C262.65 187.835 262.777 188.82 263.287 189.528C263.999 190.521 264.998 191.309 265.896 192.207L265.896 198.407C267.117 199.219 268.461 200.113 270.103 201.205C270.11 202.879 271.636 204.736 271.708 206.663C271.75 207.769 272.302 208.568 272.823 209.322C273.304 210.017 273.758 210.673 273.758 211.495C273.758 211.729 273.721 211.977 273.638 212.242C274.713 212.313 275.196 212.345 275.677 212.377C276.379 213.077 277.08 213.777 277.797 214.493L277.797 219.13C278.606 219.403 279.461 219.692 280.529 220.052C280.558 220.228 280.566 220.431 280.575 220.642C280.596 221.125 280.618 221.647 280.885 221.957C282.176 223.452 284.268 224.566 284.886 226.253C285.611 228.236 286.968 229.407 288.211 230.842L288.211 233.797C287.72 234.323 287.222 234.858 286.701 235.417L286.701 238.312C285.266 239.747 283.864 241.146 282.657 242.352C281.895 244.044 281.238 245.502 280.737 246.613C281.723 247.793 282.485 248.707 283.414 249.819C284.389 249.194 285.164 248.698 286.048 248.131C286.724 248.307 286.741 248.85 286.758 249.415C286.767 249.734 286.777 250.06 286.907 250.33C288.772 251.207 290.637 252.084 292.683 253.046C292.683 253.315 292.645 253.628 292.606 253.948C292.565 254.281 292.524 254.621 292.524 254.926C292.524 255.282 292.58 255.59 292.76 255.782C294.091 257.207 293.83 259.521 295.657 260.565C295.656 261.554 295.656 262.544 295.656 263.689C293.364 264.772 292.893 267.356 291.323 269.715L291.323 278.119C290.666 278.839 290.02 279.547 289.436 280.188C288.459 280.702 287.472 280.657 286.499 280.612C286.011 280.59 285.527 280.567 285.049 280.616C284.821 280.662 284.516 280.631 284.376 280.768C282.955 282.149 281.561 283.557 280.646 284.47C279.039 285.287 278.016 285.806 276.562 286.545L272.585 286.545C271.93 287.237 271.251 287.954 270.522 288.723C270.406 289.802 270.279 290.972 270.126 292.39L263.579 292.39C263.026 293.28 262.908 294.2 262.908 295.129C262.908 295.472 262.924 295.816 262.94 296.16C262.956 296.505 262.973 296.85 262.973 297.194C262.973 298.11 262.859 299.02 262.328 299.905L257.6 299.905C257.329 300.592 257.161 301.017 256.885 301.718C257.356 302.331 257.919 303.063 258.484 303.797C258.446 304.279 258.409 304.758 258.371 305.244C257.732 306.001 256.942 305.932 256.147 305.862C255.726 305.825 255.304 305.789 254.903 305.874C253.3 307.352 251.813 309.019 250.032 310.266C248.758 311.157 247.086 311.484 245.581 312.068C245.169 312.469 245.134 313.076 245.1 313.655C245.05 314.523 245.004 315.328 243.701 315.286C243.633 315.613 243.613 315.929 243.613 316.234C243.613 316.46 243.624 316.679 243.634 316.892C243.644 317.093 243.654 317.287 243.654 317.476C243.654 318.109 243.544 318.672 242.966 319.147C242.239 318.615 241.517 318.085 241.066 317.754C240.814 317.754 240.603 317.739 240.433 317.727C240.153 317.707 239.984 317.695 239.923 317.77C238.712 319.261 236.806 320.165 235.966 322.389C236.496 323.071 237.063 323.801 237.642 324.548L237.642 331.869C236.389 333.129 235.168 334.358 233.951 335.582C233.444 335.582 232.949 335.582 232.454 335.584C231.754 336.286 231.053 336.986 230.298 337.74C230.751 338.252 231.206 338.766 231.666 339.286C231.359 339.614 231.029 339.964 230.7 340.312C230.542 340.494 230.251 340.677 230.25 340.86C230.232 344.354 230.23 347.848 230.23 351.322C230.23 352.042 230.23 352.762 230.23 353.48C230.23 354.199 230.23 354.917 230.23 355.634C229.824 356.04 229.33 356.328 229.149 356.75C228.427 358.433 229.033 360.507 227.332 361.993C227.149 362.153 227.092 362.455 227.092 362.823C227.092 363.134 227.133 363.492 227.174 363.85C227.215 364.208 227.256 364.567 227.256 364.878L227.256 376.432C226.674 377.013 226.324 377.364 225.711 377.976L225.711 385.402C225.098 386.014 224.748 386.365 224.341 386.772L224.341 392.609C223.823 393.173 223.331 393.71 222.808 394.282L222.808 401.251C221.861 402.983 221.084 404.406 220.306 405.829C220.269 405.808 220.232 405.789 220.195 405.768C220.071 405.965 219.861 406.151 219.839 406.358C219.816 406.567 219.81 406.777 219.81 406.988C219.81 407.13 219.812 407.272 219.815 407.414C219.818 407.557 219.821 407.699 219.821 407.842L219.821 421.307C220.591 421.506 221.258 421.678 221.875 421.838C222.502 421.255 223.036 420.756 223.564 420.264L226.523 420.264C226.884 420.624 227.234 420.975 227.608 421.348C228.396 421.897 229.254 421.799 230.089 421.705C230.402 421.669 230.712 421.634 231.014 421.633C231.561 421.18 232.065 420.762 232.501 420.4C233.177 420.942 233.731 421.386 234.172 421.74C235.387 421.74 235.387 421.74 238.381 418.798L242.741 418.798C245.057 416.513 247.335 414.265 249.603 412.028L249.603 408.863C250.25 408.661 250.907 408.458 251.885 408.153C253.23 406.901 254.605 404.737 256.501 404.084C258.841 403.28 259.9 401.431 261.528 400.074C263.172 398.706 264.288 396.931 265.349 395.008C266.384 393.134 268.385 391.793 269.953 390.227C270.681 388.535 271.402 386.854 272.245 384.896C274.281 383.702 275.401 381.148 278.102 379.994C280.215 379.092 281.903 376.964 283.495 375.133C285.19 373.183 286.552 370.942 288.244 368.568L288.244 366.01C290.193 364.064 292.121 362.137 294.048 360.212C294.043 360.122 294.04 360.034 294.04 359.947C294.04 358.077 295.315 356.861 296.817 356.487C298.459 356.078 299.874 355.048 299.979 353.928C300.096 352.671 300.935 351.878 301.758 351.101C302.608 350.298 303.44 349.512 303.44 348.247C303.44 348.129 303.433 348.007 303.418 347.881C306.728 345.002 307.533 340.657 309.742 337.094L311.39 337.094C312.214 335.284 313.063 333.422 313.966 331.439C314.031 331.393 314.207 331.18 314.417 331.139C314.886 331.049 315.372 331.044 315.851 331.004C316.418 330.491 316.634 330.049 316.634 329.648C316.634 329.011 316.087 328.478 315.53 327.936C315.122 327.538 314.708 327.136 314.501 326.683C317.581 323.935 318.454 319.867 321.973 317.688L324.635 317.688C325.258 317.179 325.758 316.771 326.255 316.365C326.781 316.842 326.899 317.354 326.899 317.862C326.899 318.073 326.879 318.284 326.859 318.49C326.839 318.69 326.82 318.887 326.82 319.077C326.82 319.355 326.861 319.621 327 319.865C326.354 320.511 325.811 321.02 325.307 321.565C324.668 322.255 323.854 322.767 323.844 323.954C323.839 324.551 323.151 325.141 322.549 326.084L322.549 333.512C321.574 334.196 320.368 335.042 319.486 335.662L319.486 339.184C318.967 339.738 318.467 340.273 317.954 340.822L317.954 343.758C317.596 344.115 317.246 344.465 316.894 344.815C316.527 345.439 316.442 346.092 316.442 346.752C316.442 347.038 316.458 347.325 316.474 347.613C316.49 347.9 316.506 348.188 316.506 348.474C316.506 348.684 316.497 348.893 316.474 349.1C315.104 351.758 313.735 354.416 312.09 357.609L312.09 361.709C311.087 362.498 309.93 363.407 309.028 364.118L309.028 374.958L307.699 376.285C307.561 377.093 307.526 377.941 307.526 378.813C307.526 379.264 307.535 379.721 307.545 380.182L307.545 380.183C307.554 380.653 307.564 381.128 307.564 381.605C307.564 382.392 307.538 383.184 307.44 383.972L304.695 386.714L304.695 391.471C304.735 391.655 304.922 391.816 305.142 392.004C305.511 392.321 305.972 392.716 305.972 393.428C305.972 393.751 305.877 394.14 305.635 394.616C305.623 394.63 305.139 395.169 304.606 395.764L304.606 400.096C304.084 400.66 303.588 401.198 303.075 401.752L303.075 406.159C302.708 406.526 302.358 406.876 301.744 407.488L301.744 413.43L300.275 414.899L300.275 425.635C299.318 426.249 298.075 427.046 297.77 427.244C297.408 428.02 297.265 428.626 297.265 429.117C297.265 430.072 297.805 430.592 298.324 431.093C298.414 431.179 298.503 431.265 298.589 431.352C298.268 431.703 297.948 432.053 297.617 432.414C297.463 432.828 297.169 433.256 297.165 433.687C297.145 435.709 297.14 437.732 297.14 439.74C297.14 440.58 297.141 441.417 297.142 442.251C297.143 443.078 297.143 443.901 297.143 444.72C297.693 445.327 298.18 445.866 298.715 446.456C298.613 447.179 298.261 447.849 297.908 448.522C297.486 449.327 297.062 450.135 297.062 451.04C297.062 451.492 297.168 451.969 297.433 452.481C297.715 452.764 298.066 453.114 298.679 453.726L298.679 459.668C299.291 460.28 299.641 460.631 300.048 461.037C299.598 461.547 299.144 462.061 298.649 462.623L298.649 472.951C299.005 473.203 299.351 473.538 299.764 473.713C300.185 473.892 300.673 473.911 301.375 474.048C301.582 475.066 301.633 476.104 301.633 477.151C301.633 477.656 301.621 478.163 301.609 478.67C301.597 479.18 301.585 479.69 301.585 480.2C301.585 480.784 301.601 481.368 301.65 481.949C302.005 482.304 302.357 482.653 302.909 483.207C303.002 484.156 303.116 485.325 303.232 486.5C303.582 486.85 303.932 487.199 304.43 487.698L304.43 493.373C304.928 493.995 305.37 494.549 305.962 495.29L305.962 498.196C305.661 498.548 305.194 499.094 304.637 499.745L304.637 502.663C305.038 503.1 305.528 503.637 306.051 504.21L306.051 507.137C304.885 509.085 302.62 509.546 300.73 510.667C300.383 510.35 299.86 509.872 299.316 509.375L291.928 509.375C291.568 509.014 291.217 508.664 290.818 508.265C285.576 507.761 281.748 504.024 275.577 501.987L274.536 501.987C272.166 500.3 269.948 498.917 267.967 497.254C266.146 495.726 263.403 495.488 262.4 493.067L258.176 493.067C255.799 491.376 253.578 489.995 251.597 488.327C249.756 486.779 247.509 486.213 245.462 485.289C245.266 484.544 245.235 483.782 244.881 483.225C244.358 482.406 243.605 481.734 243.068 481.132L241.233 481.132C240.389 479.267 239.538 477.39 238.603 475.323C237.755 475.279 236.803 475.23 235.454 475.159C233.743 473.193 231.82 470.981 230.379 469.326C228.903 469.258 228.417 469.235 227.753 469.203C227.559 468.604 227.348 467.95 226.992 466.847C225.536 465.508 223.727 463.843 221.653 461.935C221.387 461.931 221.093 461.904 220.778 461.875C219.703 461.777 218.376 461.656 217.005 462.328L217.005 471.465C217.183 471.691 217.62 472.246 218.369 473.198L218.369 481.938C218.981 482.55 219.331 482.899 219.751 483.32L219.751 503.987C220.265 504.56 220.749 505.099 221.281 505.692L221.281 516.024C220.814 516.531 220.318 517.068 219.827 517.6C219.742 517.833 219.705 518.044 219.705 518.237C219.705 518.9 220.142 519.359 220.595 519.836C220.882 520.138 221.176 520.446 221.37 520.818L221.37 527.935C221.878 528.552 222.291 529.053 222.693 529.542C222.232 530.003 221.882 530.353 221.459 530.776L221.459 551.872C221.958 552.372 222.309 552.722 222.722 553.134C222.277 553.644 221.828 554.156 221.332 554.724L221.332 582.874C221.803 583.385 222.3 583.922 223.004 584.685C222.682 585.41 222.31 586.246 221.939 587.082C221.395 587.786 221.288 588.557 221.288 589.349C221.288 589.606 221.299 589.865 221.31 590.125C221.322 590.386 221.333 590.648 221.333 590.909C221.333 591.029 221.331 591.15 221.325 591.27C221.296 591.85 221.287 592.43 221.287 593.012C221.287 593.464 221.292 593.916 221.297 594.369C221.303 594.824 221.308 595.28 221.308 595.736C220.232 597.234 219.789 599.061 218.652 600.598C218.314 601.055 218.115 601.657 218.115 602.287C218.115 603.074 218.427 603.903 219.171 604.54C219.734 605.023 219.85 605.581 219.85 606.162C219.85 606.363 219.836 606.567 219.822 606.771C219.808 606.977 219.794 607.184 219.794 607.389C219.794 607.603 219.809 607.815 219.855 608.023C219.37 608.559 218.883 609.096 218.355 609.68L218.355 614.033C217.838 614.593 217.343 615.13 216.824 615.692L216.824 621.566C216.45 621.939 216.099 622.29 215.748 622.639C215.618 623.081 215.39 623.52 215.379 623.964C215.359 624.74 215.353 625.516 215.353 626.281C215.353 626.751 215.355 627.216 215.357 627.675C215.359 628.12 215.361 628.559 215.361 628.989C215.426 629.049 215.491 629.108 215.555 629.167C216.25 629.803 216.888 630.387 216.888 631.196C216.888 631.497 216.8 631.83 216.594 632.207C215.607 632.843 214.532 632.776 213.409 632.707L213.408 632.707C212.776 632.667 212.129 632.627 211.473 632.711C210.832 633.574 209.755 634.445 209.514 635.507C209.262 636.614 208.55 637.131 207.954 637.848C207.015 638.978 205.355 638.687 204.295 639.888C203.303 641.012 203.761 642.776 202.272 643.549C200.836 644.296 199.453 645.145 197.96 646L184.904 646C182.523 644.942 182.95 642.081 181.126 640.732L181.126 633.393C179.691 631.959 178.29 630.559 176.845 629.116C176.908 628.82 176.936 628.535 176.936 628.259C176.936 626.965 176.319 625.854 175.701 624.738C175.32 624.052 174.939 623.364 174.699 622.631C174.356 621.58 172.612 620.958 172.333 619.918C171.662 617.422 169.94 615.461 169.231 613.016C169.044 612.371 168.44 611.848 167.867 611.042L167.867 607.482C165.767 603.373 163.908 599.731 162.041 596.077C162.36 595.757 162.711 595.407 163.189 594.929L163.189 590.099C163.153 589.928 162.952 589.771 162.712 589.582C162.297 589.257 161.766 588.839 161.766 588.105C161.766 587.909 161.803 587.69 161.892 587.444C162.26 587.027 162.737 586.486 163.279 585.872L163.279 568.094C162.838 567.622 162.339 567.089 161.831 566.546C161.831 551.217 161.831 535.87 161.832 520.525L163.242 519.117C163.314 518.366 163.34 517.546 163.34 516.693C163.34 515.687 163.304 514.634 163.269 513.595C163.264 513.43 163.258 513.266 163.253 513.102C162.768 512.526 162.342 512.02 161.922 511.521C162.361 511.082 162.712 510.733 163.189 510.255L163.189 498.292C162.942 497.992 162.489 497.442 161.913 496.743L161.913 493.833C162.259 493.44 162.737 492.898 163.278 492.284L163.278 462.706C163.794 462.154 164.294 461.619 164.8 461.077L164.8 458.17C164.308 457.628 163.84 457.109 163.372 456.594C163.764 456.203 164.115 455.853 164.726 455.243L164.726 434.445C165.337 433.834 165.688 433.483 166.154 433.016L166.154 423.747C165.16 423.382 164.302 423.067 162.822 422.525C164.305 421.483 165.474 420.661 166.297 420.082L166.297 410.592C166.655 410.235 167.005 409.885 167.357 409.535C167.498 409.098 167.757 408.662 167.758 408.224C167.758 408.031 167.759 407.838 167.759 407.646C167.759 405.625 167.716 403.604 167.653 401.584C167.647 401.403 167.325 401.234 167.264 401.173C164.151 404.284 161.036 407.397 157.449 410.98C157.435 411.216 157.381 412.164 157.349 412.725C155.617 414.439 154.06 415.98 152.934 417.096L152.934 420.827C151.762 423.31 148.632 423.051 147.114 425.382L147.114 431.223C146.503 431.84 145.798 432.482 145.179 433.197C144.723 433.724 144.339 434.324 143.996 434.932C143.542 435.736 143.159 436.58 142.519 437.863L142.519 441.726C138.622 443.733 138.622 443.733 136.323 449.449C134.396 451.375 132.377 453.22 130.576 455.256C129.511 456.459 128.592 457.885 127.98 459.364C127.686 460.076 127.677 460.904 127.669 461.735C127.665 462.138 127.661 462.541 127.624 462.931C127.58 463.396 127.47 463.856 127.352 464.536C126.752 464.658 126.076 464.796 125.256 464.963L121.689 468.525L121.689 471.677C120.88 471.952 120.02 472.245 118.8 472.66C118.75 473.686 118.693 474.854 118.636 476.025C117.589 478.214 114.836 477.971 113.455 479.675C111.153 479.764 110.222 481.123 109.714 483.239C109.618 483.635 109.321 483.962 109.018 484.295C108.631 484.722 108.233 485.16 108.233 485.769C108.233 485.943 108.265 486.13 108.339 486.334C106.029 488.636 103.714 490.874 101.488 493.197C100.525 494.202 100.783 495.91 99.3965 496.809C98.3802 497.469 97.6172 498.518 96.741 499.393L93.8673 502.263C93.0446 504.052 92.3774 505.503 91.1768 508.114C90.6775 508.584 88.7562 509.7 87.9479 511.358C87.1932 512.906 86.3879 514.236 85.1833 515.405C83.7614 516.784 82.3754 518.2 80.9741 519.601C80.3028 519.776 79.6325 519.953 78.8407 520.16C78.7058 520.779 78.5586 521.454 78.4041 522.168C76.5085 524.062 74.5811 525.986 72.9058 527.661C72.5774 528.616 72.5496 529.512 72.0934 529.878C70.5325 531.129 71.4716 533.994 68.9757 534.598L65.6685 534.598C64.6584 535.697 63.5453 537.021 62.3087 538.219C60.9197 539.562 59.608 541.32 57.9142 541.923C56.0866 542.574 55.3926 544.147 53.9944 545.038C52.5047 544.688 51.7421 545.576 50.9527 546.494C50.3081 547.244 49.6456 548.015 48.5547 548.15C46.8713 548.358 45.4504 550.375 43.7391 550.719C41.267 551.215 40.2775 553.228 38.5961 554.51L38.5961 554.526C38.5961 556.98 36.9084 557.75 35.2237 558.519C34.7905 558.717 34.3575 558.914 33.9534 559.141C33.3572 559.475 32.7333 559.758 32.1104 560.069C31.4329 559.499 30.8851 559.037 30.2385 558.492C29.6042 559.086 28.9267 559.722 28.0978 560.498C28.0587 561.322 28.0134 562.279 27.964 563.306C26.4 564.727 24.7751 566.204 23.5386 567.328C23.5386 568.568 23.5386 569.062 23.5365 569.556C22.8343 570.256 22.1331 570.957 21.3722 571.717L17.022 571.717C16.4547 572.233 15.9161 572.723 15.3406 573.247L12.4164 573.247C12.0797 572.925 11.7244 572.586 11.2838 572.164C10.2505 571.6 9.12006 571.687 7.97534 571.774L7.97479 571.774C7.44513 571.815 6.91235 571.855 6.3847 571.832C6.03467 572.184 5.68457 572.533 5.30151 572.916C3.94904 573.487 2.53912 573.343 1.12781 573.198C0.869507 573.171 0.611145 573.145 0.353088 573.123C0.154846 572.925 0.0283203 572.798 0.00396729 572.655C0.00115967 572.638 -0.000305176 572.621 -0.000305176 572.603C-0.000305176 572.358 0.286133 572.038 0.994568 571.246C1.23651 570.34 1.30249 569.391 1.30249 568.414C1.30249 567.836 1.27942 567.248 1.25604 566.653C1.23212 566.042 1.20789 565.425 1.20789 564.802C1.20789 563.883 1.26074 562.953 1.44556 562.023C3.06824 561.334 2.28571 558.955 3.86414 557.968C5.12238 557.181 5.43231 555.717 6.0882 554.463C6.83881 553.027 8.38843 552.006 9.26978 551.126C10.2615 550.834 10.9614 551.312 11.6345 551.771C12.4598 552.334 13.2448 552.87 14.4777 551.926C14.556 550.479 14.6466 548.814 14.7372 547.149C15.9635 545.924 17.2444 544.747 18.3997 543.458C18.635 543.195 18.9176 542.957 19.2014 542.719C19.9144 542.12 20.6352 541.514 20.6352 540.48C20.6352 540.302 20.614 540.113 20.5681 539.908C21.8263 538.724 23.0855 537.541 24.388 536.316C24.7515 536.647 25.2704 537.119 25.7904 537.592C27.0013 536.383 28.2275 535.157 29.4714 533.914L29.4714 532.481C29.9862 531.924 30.4814 531.387 31.0035 530.824L31.0035 526.49C32.2679 525.205 33.4828 523.971 34.6948 522.74C34.8577 522.74 35.035 522.76 35.2108 522.781C35.5896 522.824 35.9612 522.867 36.1651 522.703C37.1227 521.929 37.8249 520.787 38.8545 520.167C40.1426 519.39 39.4548 517.825 40.4134 517.071C41.2824 516.388 41.1558 515.354 41.5573 514.574C41.8765 513.953 43.2645 513.974 43.9615 513.433C45.0342 512.601 46.0762 511.638 46.0762 509.944C46.0762 509.859 46.0735 509.772 46.0682 509.684C47.8999 507.855 49.8192 505.937 51.7961 503.962C51.8157 503.591 51.8414 503.107 51.8599 502.762C53.7009 500.346 56.5562 498.925 57.7001 496.123C58.7802 493.475 61.6611 492.392 62.8163 490.063C64.264 487.146 66.522 485.078 68.6884 482.847C68.7755 482.757 68.8804 482.663 68.9872 482.567C69.2811 482.303 69.5906 482.026 69.5906 481.786C69.5906 481.777 69.5902 481.768 69.5894 481.76C69.5795 481.658 69.5748 481.561 69.5748 481.466C69.5748 480.237 70.3732 479.543 71.171 478.849C71.7725 478.326 72.3737 477.804 72.632 477.052C73.1519 475.543 73.5957 473.899 74.5337 472.664C75.8681 470.905 77.6257 469.466 79.2021 467.891C79.684 467.858 80.1658 467.824 80.6477 467.791C81.4858 466.246 81.4858 466.246 81.5322 464.528C81.7762 464.134 81.9451 463.653 82.2787 463.361C83.6903 462.123 84.6839 460.497 86.875 460.047C87.8235 459.852 89.0753 458.75 89.0753 457.225C89.0753 457.027 89.0541 456.822 89.0084 456.61C89.3596 456.204 89.7637 455.836 90.1639 455.471C91.2036 454.522 92.2182 453.597 92.2182 452.097C92.2182 451.892 92.1993 451.677 92.1591 451.45L94.1731 451.45C94.933 448.448 97.54 446.865 98.7673 445.422C100.18 442.239 101.012 439.802 103.122 438.074L104.591 438.074C105.753 435.818 106.913 433.568 108.286 430.902L108.286 426.855C109.471 425.702 110.569 424.277 111.994 423.356C112.512 423.021 112.584 422.398 112.653 421.797C112.706 421.334 112.758 420.884 113.01 420.587C113.099 419.485 113.762 418.957 114.997 419.003C114.999 419.052 115 419.1 115 419.148C115 419.945 114.742 420.486 114.226 420.768ZM439.666 209.032L439.666 206.376C440.666 205.318 441.667 204.261 442.686 203.185L442.686 200.397C443.243 199.737 443.704 199.192 444.1 198.725C444.1 198.29 444.05 197.831 444.001 197.383C443.955 196.953 443.909 196.532 443.909 196.15C443.909 195.678 443.979 195.266 444.201 194.968C445.429 193.323 445.338 191.454 445.938 189.73C446.458 188.235 447.513 186.928 448.508 185.237L448.508 181.202C450.281 180.105 449.856 177.649 451.488 176.493C451.478 176.41 451.473 176.33 451.473 176.25C451.473 175.493 451.91 174.859 452.348 174.225C452.785 173.59 453.222 172.955 453.222 172.198C453.222 171.884 453.147 171.549 452.965 171.184C454.123 169.94 454.509 168.492 454.509 166.916C454.509 166.574 454.49 166.227 454.458 165.875C454.433 165.596 454.417 165.324 454.417 165.057C454.417 163.925 454.698 162.895 455.692 161.901C456.358 161.235 455.747 159.343 456.391 158.582C457.304 157.502 457.245 156.446 457.46 155.271C457.659 154.187 458.763 153.209 458.787 152.169C458.825 150.593 459.78 149.571 460.234 148.3C461.334 145.221 463.277 142.654 464.714 138.718L464.714 135.377C465.225 134.804 465.704 134.266 466.235 133.671L466.235 129.352C466.753 128.792 467.247 128.257 467.753 127.709L467.753 123.303L468.832 122.222C469.154 121.619 469.188 120.906 469.222 120.19C469.278 119.006 469.335 117.815 470.697 117.106C470.641 116.857 470.617 116.618 470.617 116.388C470.617 115.434 471.041 114.62 471.467 113.802C471.689 113.377 471.911 112.95 472.075 112.502C472.2 112.16 472.24 111.788 472.24 111.401C472.24 111.044 472.206 110.674 472.171 110.303C472.137 109.933 472.102 109.562 472.102 109.203C472.102 108.825 472.14 108.461 472.257 108.125C473.075 105.771 473.884 103.377 475.096 101.152L475.096 87.6257C474.484 87.1218 473.728 86.5 472.667 85.626L468.39 85.626C467.957 86.0569 466.954 86.615 466.66 87.4297C465.632 90.2749 464.081 92.323 460.972 93.1553C459.776 93.4753 459.297 95.2915 457.539 95.7112C457.457 93.9329 457.38 92.2727 457.306 90.6782C456.802 90.0955 456.335 89.5537 455.669 88.7832C456.094 88.0146 456.537 87.2141 457.408 85.6423L457.408 81.8069C458.016 81.1985 458.364 80.8496 458.793 80.4175L458.793 76.3994C459.844 74.5525 460.757 72.9458 461.83 71.0598C461.83 68.4709 461.83 65.5107 461.829 62.5496C461.481 62.2007 461.133 61.8518 460.783 61.5029C460.639 61.0688 460.381 60.637 460.372 60.2009C460.352 59.1348 460.347 58.0686 460.347 56.9883C460.347 56.4172 460.348 55.8423 460.35 55.2612L460.35 55.2559C460.351 54.6597 460.353 54.0574 460.353 53.4463C461.246 53.1313 462.132 52.8921 462.946 52.5022C463.365 52.301 463.655 51.8301 464.025 51.4587L467.126 51.4587C467.945 49.6528 468.788 47.7937 469.673 45.842C470.47 45.4036 471.359 45.4485 472.307 45.4963C472.85 45.5237 473.412 45.552 473.987 45.4912C474.463 45.4094 474.849 45.0867 475.252 44.7495C475.881 44.2239 476.552 43.6631 477.668 43.9243C478.251 44.0613 478.954 43.6843 479.657 43.3076C479.975 43.137 480.292 42.9666 480.599 42.8438L481.778 44.0259C482.303 44.0259 482.833 44.0261 483.367 44.0264C485.677 44.0276 488.061 44.0286 490.444 44.0095C490.639 44.0085 490.831 43.7715 491.024 43.6443C491.324 42.7854 491.623 41.9265 491.946 41C492.361 41.3728 492.68 41.6597 492.72 41.6956L492.724 41.6995C493.291 42.2183 493.467 42.5208 493.648 42.5227C495.617 42.5481 497.587 42.5466 499.641 42.5449C500.148 42.5447 500.66 42.5442 501.178 42.5442C501.466 43.3804 501.762 44.2402 502.059 45.1013C502.95 45.6082 503.893 45.5586 504.844 45.5088C505.343 45.4824 505.845 45.4561 506.341 45.5105C507.793 46.1387 509.094 46.9675 510.859 47.1379C512.327 47.2795 513.638 48.478 515.418 48.6113C516.864 48.7192 518.329 49.9146 519.582 50.8892C520.933 51.939 522.031 53.3108 523.271 54.5093C524.504 55.7017 525.778 56.8518 526.881 57.8779L526.881 61.1284C528.168 61.876 528.239 63.0215 528.314 64.2151C528.33 64.4731 528.346 64.7336 528.375 64.9927C528.438 65.5559 528.763 66.0225 529.096 66.5002C529.488 67.0625 529.89 67.6406 529.89 68.4102C529.89 68.5457 529.878 68.687 529.851 68.8352C529.794 69.1453 529.764 69.4487 529.764 69.7473C529.764 70.803 530.132 71.8008 530.962 72.835C531.325 73.2881 531.406 73.9685 531.406 74.7419C531.406 75.0461 531.393 75.3647 531.381 75.6899C531.367 76.0278 531.354 76.3723 531.354 76.7146C531.354 76.9175 531.359 77.1194 531.371 77.3188C531.688 77.6882 532.154 78.23 532.703 78.8701L532.703 81.8899C533.288 82.1074 533.908 82.3127 534.51 82.563C537.235 83.6938 538.027 86.4641 538.488 88.741C538.988 91.2026 540.947 92.6802 541 95.7522C539.976 97.7551 538.542 100.558 537.032 103.509C537.431 104.08 537.828 104.646 538.483 105.581L538.483 116.09L537.384 117.192C537.268 118.257 537.139 119.425 536.989 120.792C536.325 120.928 535.652 121.065 534.927 121.212C534.025 124.302 531.296 126.065 529.214 128.354C528.807 128.426 528.38 128.44 527.953 128.455C526.716 128.498 525.474 128.541 524.695 129.95L521.781 129.95C521.229 130.466 520.698 130.964 520.159 131.47C514.762 131.47 509.349 131.47 503.938 131.471C502.826 133.438 502.393 135.9 499.343 136.214C498.394 136.311 497.591 137.838 496.638 138.794L493.942 138.794C493.467 139.169 493.061 139.429 492.729 139.76C489.242 143.242 485.765 146.735 482.286 150.224C480.895 151.621 479.412 152.939 478.138 154.436C477.076 155.686 475.647 156.489 474.989 158.304C474.378 159.991 472.441 161.146 471.365 162.725C469.949 164.801 469.363 167.34 467.814 169.406C467.639 169.639 467.585 169.961 467.585 170.329C467.585 170.635 467.623 170.972 467.661 171.314C467.701 171.668 467.741 172.028 467.741 172.365C465.386 173.816 464.667 176.445 463.343 178.636C462.526 179.988 462.212 181.652 461.365 182.977C460.728 183.973 459.603 184.654 458.844 185.34L458.844 188.589C457.439 189.365 457.395 190.606 457.351 191.845C457.336 192.278 457.321 192.711 457.247 193.123C455.966 193.794 455.94 194.9 455.914 196C455.901 196.568 455.887 197.135 455.7 197.639C454.813 198.529 453.944 199.401 453.02 200.328L453.02 203.19C452.506 203.752 452.017 204.287 451.505 204.845C451.458 205.205 451.453 205.568 451.449 205.932C451.437 206.921 451.424 207.916 450.545 208.885C449.593 209.934 448.67 211.572 448.67 212.911C448.67 213.002 448.674 213.091 448.682 213.178C448.696 213.312 448.702 213.443 448.702 213.571C448.702 214.78 448.132 215.67 447.585 216.524C447.336 216.912 447.093 217.293 446.909 217.693C445.868 219.968 445.112 222.669 442.633 223.938L442.633 229.971L441.115 231.614L441.115 234.5C440.738 234.878 440.39 235.227 440.041 235.576C439.708 236.222 439.636 236.891 439.636 237.597C439.636 237.858 439.646 238.125 439.656 238.397C439.666 238.682 439.677 238.973 439.677 239.271C439.677 239.561 439.667 239.858 439.636 240.162C439.374 240.514 438.956 241.073 438.334 241.908L438.334 247.09C437.413 248.73 436.655 250.079 435.894 251.435C435.526 251.066 435.179 250.718 434.783 250.319C434.091 250.2 433.769 250.636 433.449 251.071C433.244 251.349 433.04 251.626 432.74 251.757C432.339 252.486 432.253 253.243 432.253 254.005C432.253 254.291 432.265 254.577 432.277 254.863C432.289 255.149 432.301 255.434 432.301 255.717C432.301 256.066 432.283 256.413 432.225 256.755L429.986 259C429.412 258.229 428.839 257.46 428 256.334L428 244.688C428.503 244.184 428.851 243.835 429.262 243.424L429.262 239.093C429.773 238.528 430.257 237.991 430.781 237.413L430.781 234.549C431.294 233.993 431.787 233.457 432.302 232.898L432.302 230.044C432.827 229.459 433.31 228.923 433.821 228.355L433.821 223.259C436.132 218.242 436.613 213.226 439.666 209.032ZM163.522 202.165L163.562 203.106C164.224 203.194 164.884 203.318 165.548 203.343C165.703 203.349 166.026 203.013 166.026 202.887C166.026 202.881 166.025 202.875 166.024 202.871C165.923 202.52 165.698 201.944 165.493 201.932C165.025 201.904 164.551 201.989 164.076 202.073C163.891 202.106 163.706 202.139 163.522 202.165ZM278.561 243.478C279.077 242.987 279.349 242.499 279.349 242.004C279.349 241.488 279.052 240.964 278.427 240.422C277.838 240.542 277.177 240.675 276.21 240.871C276.425 241.904 276.597 242.726 276.753 243.478L278.561 243.478ZM432.065 249.504C431.894 249.194 431.717 248.872 431.539 248.55C431.488 248.601 431.421 248.656 431.354 248.711C431.215 248.824 431.076 248.939 431.076 249.022C431.076 249.027 431.077 249.032 431.078 249.037C431.156 249.386 431.375 249.702 431.539 250.031C431.704 249.867 431.868 249.702 432.065 249.504ZM429.663 262C429.7 262.221 429.746 262.443 429.793 262.665C429.896 263.159 430 263.653 430 264.142C430 264.215 429.998 264.289 429.993 264.362C429.975 264.608 429.162 264.877 428.667 264.998C428.511 265.035 428 264.631 428 264.434L428 264.429C428.036 263.633 428.211 262.841 428.336 262.048L429.663 262ZM449 307C448.066 306.281 447.533 305.871 447 305.46C448.387 304.489 448.555 305.203 448.8 306.238C448.857 306.48 448.918 306.74 449 307ZM308.511 351.707C308.709 351.508 308.874 351.343 309.04 351.178C308.709 351.012 308.391 350.791 308.041 350.713C307.957 350.695 307.836 350.842 307.715 350.99C307.66 351.058 307.604 351.126 307.552 351.178C307.875 351.356 308.199 351.534 308.511 351.707ZM178.296 422.164C179.642 421.682 180.322 421.508 180.931 421.195C181.349 420.981 181.618 420.451 182.041 420.284C182.668 420.037 183.373 419.987 183.933 419.875C184.135 418.96 184.284 418.286 184.42 417.67C185.392 417.332 186.254 417.032 187.109 416.735C187.109 416.367 187.066 415.964 187.024 415.573C186.985 415.205 186.947 414.849 186.947 414.543C186.947 414.17 187.004 413.871 187.184 413.72C188.754 412.403 188.454 410.09 190.015 408.971L190.015 404.907C189.321 403.834 188.823 403.062 188.004 401.795C189.404 400.881 190.639 400.074 191.506 399.508L191.506 376.743C191.689 376.376 191.97 376.071 192.248 375.771C192.696 375.286 193.134 374.811 193.134 374.1C193.134 373.874 193.09 373.625 192.988 373.344C192.39 372.798 191.662 372.135 190.586 371.155C189.835 372.226 189.017 373.392 188.446 374.205L186.18 374.205C185.902 375.017 185.605 375.88 185.047 377.511C183.588 378.846 181.592 380.672 179.603 382.493L179.603 385.329C179.036 386.004 178.576 386.551 178.296 386.886L178.296 422.164ZM303.835 374.203C303.783 374.255 303.716 374.31 303.648 374.365C303.508 374.48 303.368 374.594 303.368 374.677C303.368 374.682 303.369 374.687 303.37 374.692C303.448 375.042 303.67 375.358 303.835 375.688C303.887 375.637 303.954 375.582 304.022 375.526C304.162 375.412 304.302 375.298 304.302 375.215C304.302 375.21 304.302 375.205 304.301 375.2C304.222 374.851 304.001 374.533 303.835 374.203ZM545 394C544.281 394.933 543.871 395.466 543.46 396C543.136 395.538 543 395.212 543 394.972C543 394.493 543.548 394.363 544.238 394.2C544.48 394.143 544.74 394.082 545 394ZM115 419C115.719 418.067 116.13 417.533 116.54 417C116.863 417.462 117 417.789 117 418.028C117 418.507 116.452 418.637 115.762 418.8C115.52 418.857 115.26 418.918 115 419ZM461.902 432.044L467.078 432.044C467.622 432.552 468.156 433.052 468.707 433.568L471.56 433.568C472.167 434.106 472.707 434.586 473.279 435.094L479.004 435.094C479.634 435.605 480.132 436.009 480.615 436.402L483.364 433.653C484.602 434.698 485.839 435.746 486.78 436.542C487.063 436.523 487.287 436.524 487.463 436.524L487.464 436.524C487.744 436.525 487.902 436.525 487.984 436.447C489.406 435.071 490.797 433.662 492.128 432.331C493.672 431.541 494.89 432.179 496.093 432.809C496.757 433.157 497.416 433.503 498.123 433.605C499.318 431.892 499.632 429.512 502.499 429C503.569 429.92 504.818 430.995 506.027 432.035C507.196 432.207 507.826 431.631 508.588 430.935C509.322 430.264 510.179 429.481 511.758 429.146L513.355 429.146C514.52 431.415 517.369 431.851 519.385 433.574L523.427 433.574C526.146 435.528 529.539 435.23 531.873 437.328L531.873 438.762C532.766 439.108 533.235 439.29 533.672 439.232C534.156 439.168 534.601 438.81 535.539 438.055L538.536 438.055C539.491 438.964 540.55 439.972 541.632 441.001L543.232 441.001C543.523 441.839 543.823 442.7 544.196 443.774C545.274 443.87 546.444 443.975 547.816 444.099C547.981 444.696 548.164 445.359 548.448 446.384C550.454 448.343 552.735 450.572 555.016 452.8C555.314 452.502 555.664 452.152 556.093 451.724C557.661 451.776 557.898 453.649 559.157 454.193C560.328 454.321 561.498 454.449 562.491 454.557C563.69 456.961 564.815 459.218 566.099 461.789C566.096 462.321 565.776 462.811 565.423 463.35C564.992 464.01 564.513 464.743 564.513 465.712C564.513 466.214 564.642 466.78 564.972 467.432C565.575 467.806 566.844 468.592 567.094 468.747C567.346 469.488 567.45 470.082 567.45 470.57C567.45 471.799 566.791 472.352 566.185 472.86L566.11 472.923L566.11 478.438C566.964 480.103 567.603 481.349 568.245 482.601L571.347 482.601C572.415 483.812 573.552 485.102 574.946 486.681L574.946 494.804C575.992 496.64 576.91 498.25 578 500.163L578 502.721C577.498 503.257 576.998 503.791 576.521 504.3C576.497 504.826 576.474 505.311 576.443 505.974C575.845 506.167 575.191 506.379 573.877 506.805C573.421 507.457 572.568 508.669 572.016 509.456L568.317 509.456C566.227 511.75 563.759 513.641 562.419 516.665C561.83 517.995 560.519 519.523 558.654 519.869C558.479 519.446 558.33 518.673 558.123 518.656C557.896 518.639 557.661 518.613 557.423 518.588C556.444 518.482 555.409 518.371 554.665 518.764C554.192 519.013 553.73 519.284 553.27 519.553C551.51 520.583 549.772 521.601 547.545 521.357C546.001 523.242 542.729 522.76 542.133 525.577C540.668 525.741 539.495 525.872 538.117 526.026C537.982 526.69 537.844 527.369 537.666 528.242C536.696 528.923 535.603 528.896 534.357 528.865C533.219 528.836 531.953 528.804 530.536 529.305C530.239 529.696 529.35 530.871 528.35 532.193C527.354 529.817 526.517 527.905 524.727 527.193C523.974 527.363 523.672 527.338 523.532 527.477C520.709 530.268 517.907 533.078 514.838 536.147L505.775 536.147C504.866 538.071 504.082 539.729 503.155 541.692C502.309 542.126 501.077 542.76 499.364 543.641L496.814 543.641C496.254 544.317 495.627 545.076 494.908 545.946C494.969 546.242 495.209 546.518 495.465 546.812C495.81 547.207 496.182 547.634 496.182 548.184C496.182 548.56 496.009 548.994 495.534 549.514C495.084 549.171 494.609 548.811 493.609 548.051C492.961 549.141 492.239 550.354 491.353 551.84C490.308 550.304 490.204 548.863 490.204 547.486C490.204 547.315 490.206 547.145 490.207 546.976C490.209 546.809 490.21 546.643 490.21 546.478C490.21 545.633 490.17 544.811 489.881 544.003C488.99 543.825 488.574 544.395 488.162 544.959C487.915 545.298 487.669 545.635 487.322 545.807C486.291 546.317 485.27 546.843 484.241 547.365L484.241 549.023C481.965 550.127 481.459 552.681 479.904 555.117L479.904 561.292C479.916 561.369 480.049 561.452 480.229 561.564C480.64 561.821 481.294 562.229 481.294 563.062C481.294 563.266 481.254 563.495 481.163 563.754C480.344 564.163 479.356 564.657 478.396 565.137C478.203 565.45 478.123 565.728 478.123 565.981C478.123 566.589 478.582 567.053 479.04 567.517C479.495 567.978 479.95 568.437 479.95 569.035C479.95 569.244 479.894 569.47 479.764 569.718C481.253 570.631 481.321 572.032 481.321 573.451C481.321 573.523 481.321 573.594 481.321 573.666C481.321 573.737 481.321 573.808 481.321 573.88C481.321 574.011 481.321 574.142 481.323 574.273C483.62 576.377 485.434 579.02 488.577 580.146C489.232 580.38 490.203 581.043 490.203 582.165C490.203 582.238 490.199 582.314 490.19 582.391C490.182 582.462 490.179 582.531 490.179 582.596C490.179 583.35 490.681 583.744 491.18 584.134C491.593 584.458 492.004 584.78 492.122 585.302L495.235 585.302C496.317 586.329 497.38 587.337 498.467 588.369L499.885 588.369C500.714 589.811 501.524 591.222 502.241 592.471C504.375 592.83 506.352 592.727 507.756 594.297C509.079 593.969 510.106 594.552 511.215 595.183C511.648 595.429 512.094 595.682 512.574 595.891C513.04 595.591 513.603 595.197 514.197 594.856C514.592 594.629 515.031 594.48 515.8 594.142C516.927 595.115 518.054 596.844 519.459 597.11C521.216 597.443 521.755 598.8 522.894 599.399C522.948 599.636 522.966 599.873 522.966 600.11C522.966 600.354 522.947 600.597 522.928 600.836C522.909 601.069 522.891 601.299 522.891 601.523C522.891 602.069 523 602.584 523.479 603.041C524.223 602.573 524.962 602.108 525.658 601.671C527.945 603.158 528.354 603.641 529.18 605.758C532.513 609.091 535.845 612.423 539.24 615.819L539.24 618.681L540.774 620.37L540.774 623.254C541.289 623.811 541.785 624.35 542.307 624.916L542.307 626.329L546.645 630.666L546.645 636.438C547.154 637.032 547.622 637.577 548.178 638.226L548.178 644.004C548.696 644.57 549.189 645.108 549.711 645.677L549.711 659.071C550.054 659.38 550.419 659.711 550.884 660.132C551.188 660.822 551.272 661.533 551.272 662.247C551.272 662.696 551.239 663.146 551.206 663.594C551.173 664.036 551.141 664.475 551.141 664.907C551.141 665.41 551.184 665.903 551.322 666.381C550.796 666.908 550.445 667.259 549.906 667.798C550.318 668.435 550.764 669.123 551.403 670.113C551.01 670.768 550.537 671.557 549.567 673.174C549.5 673.35 549.47 673.537 549.47 673.735C549.47 674.754 550.285 676.027 551.104 677.307L551.22 677.489C551.071 677.95 551.005 678.437 550.767 678.812C550.507 679.221 550.086 679.527 549.486 680.128C550.539 682.279 551.647 684.539 552.813 686.918C552.389 687.474 551.962 688.034 551.217 689.012L551.217 702.211C550.604 702.824 550.254 703.176 549.64 703.788L549.64 711.232L548.28 712.592L548.28 719.95C547.759 720.509 547.26 721.045 546.746 721.596L546.746 726.037C546.397 726.384 546.044 726.734 545.433 727.34L545.433 731.813C544.819 732.427 544.468 732.778 543.855 733.391L543.855 740.834C542.715 741.975 541.838 742.852 540.698 743.992L540.698 751.432C540.085 752.047 539.734 752.398 539.344 752.789L539.344 758.667C538.824 759.224 538.324 759.76 537.811 760.31L537.811 767.718C535.59 769.642 535.578 772.813 533.667 774.972C532.979 775.749 532.988 777.098 532.063 778.02C530.893 779.187 529.087 779.978 528.915 781.89C528.858 782.526 528.446 782.995 528.037 783.46C527.607 783.949 527.182 784.434 527.182 785.102C527.182 785.283 527.213 785.477 527.283 785.689C525.631 786.83 525.815 789.143 524.159 790.379C522.586 791.553 521.285 793.091 519.936 794.4L519.936 799.944C519.192 801.421 518.676 802.447 517.885 804.02C517.463 804.442 516.586 805.319 515.598 806.308L515.598 809.521C514.603 810.258 513.418 811.135 512.758 811.624C512.584 812.225 512.55 812.769 512.55 813.266C512.55 813.428 512.554 813.586 512.557 813.739C512.561 813.882 512.564 814.022 512.564 814.157C512.564 814.794 512.493 815.344 512.032 815.834C511.613 815.777 511.245 815.508 510.873 815.235C510.15 814.705 509.408 814.162 508.228 815.128C508.133 816.116 508.02 817.289 507.888 818.665C507.29 818.825 506.623 819.004 505.578 819.284C505.067 819.642 504.985 820.23 504.985 820.883C504.985 821.036 504.989 821.194 504.994 821.353C504.999 821.515 505.003 821.679 505.003 821.841C505.003 822.733 504.861 823.601 503.789 824.072C503.79 824.108 503.79 824.144 503.79 824.18C503.79 825.653 502.891 826.517 501.959 827.412C501.481 827.871 500.995 828.337 500.617 828.899L500.617 834.642C500.105 835.196 499.608 835.734 499.083 836.299L499.083 837.889C498.239 838.184 497.376 838.487 496.427 838.82C496.287 839.45 496.137 840.126 495.986 840.803C494.584 842.208 493.181 843.611 491.672 845.12C491.672 845.299 491.676 845.486 491.68 845.68C491.684 845.887 491.689 846.102 491.689 846.32C491.689 846.61 491.681 846.906 491.653 847.201C491.612 847.648 491.48 848.137 491.238 848.508C489.337 851.412 488.317 854.771 486.487 857.699C485.976 858.52 485.113 859.121 484.321 859.913C484.74 860.412 485.167 860.919 485.552 861.377C485.01 862.339 484.46 863.313 483.26 865.438C483.094 865.604 482.593 866.102 482.062 866.628C481.557 866.184 481.042 865.733 480.51 865.266C479.895 866.452 479.268 867.661 478.357 869.417C478.302 870.433 478.212 872.102 478.126 873.686C477.055 874.064 476.193 874.369 475.338 874.671L475.338 877.72C474.308 878.834 472.768 879.78 472.469 881.022C472.146 882.368 471.365 883.078 470.666 884.03C469.856 885.133 469.223 886.367 468.494 887.575L465.592 887.575C464.86 888.306 464.158 889.008 463.461 889.704C463.348 889.985 463.299 890.236 463.299 890.465C463.299 891.203 463.81 891.708 464.321 892.212C464.507 892.397 464.694 892.581 464.856 892.777C463.371 894.101 460.608 893.878 460.334 896.755C460.258 897.551 459.249 898.276 458.627 898.998C455.96 902.094 452.275 904.303 450.673 908.357C450.382 909.095 449.528 909.726 448.401 909.972C447.337 910.205 446.454 911.266 445.548 911.922L445.548 916.837L441.337 917.618C441.214 918.223 441.073 918.901 440.909 919.703C439.084 921.528 437.155 923.457 435.225 925.387C435.255 925.552 435.269 925.71 435.269 925.861C435.269 927.002 434.458 927.727 433.646 928.451C432.835 929.175 432.023 929.9 432.023 931.042C432.023 931.194 432.038 931.353 432.068 931.521C431.191 932.398 430.374 933.347 429.422 934.133C428.255 935.098 427.82 936.381 427.271 937.719C426.662 939.203 425.812 940.756 424.637 941.79C423.43 942.853 423.318 944.271 422.624 945.473C420.742 948.728 419.484 952.367 416.323 954.8C415.694 955.286 415.796 956.668 415.186 957.242C413.926 958.432 414.371 960.591 412.603 961.416C411.098 962.117 411.535 963.964 410.539 965.041C409.954 965.673 409.794 966.695 409.397 967.653C408.787 967.782 408.11 967.927 407.432 968.071C405.453 969.777 404.028 972.091 401.224 972.873C399.477 973.359 399.849 975.78 398.559 976.854C398.06 976.876 397.573 976.898 397.09 976.92C396.433 977.577 396.433 977.577 396.407 981.87C395.33 983.362 393.889 984.462 392.52 986C392.175 985.028 392 984.238 392 983.503C392 982.783 392.168 982.118 392.506 981.388C392.777 980.802 393.128 980.24 393.481 979.676C394.235 978.469 394.995 977.252 394.995 975.768C394.995 975.504 394.971 975.231 394.919 974.949C395.168 974.205 395.782 973.691 396.39 973.18C397.163 972.533 397.927 971.892 397.927 970.797C397.927 970.651 397.913 970.497 397.884 970.333C399.415 968.641 400.888 967.012 402.361 965.382C402.319 965.23 402.301 965.089 402.301 964.956C402.301 964.354 402.69 963.937 403.078 963.523C403.427 963.149 403.774 962.778 403.834 962.276C403.867 961.999 403.878 961.719 403.878 961.411C403.878 961.184 403.872 960.942 403.866 960.674C403.858 960.345 403.85 959.978 403.85 959.553C405.285 958.378 406.993 956.98 408.343 955.875L408.343 951.353C408.991 950.031 409.321 949.152 409.821 948.383C410.83 946.827 411.016 944.764 412.589 943.583C415.392 941.48 416.188 938.143 417.916 935.377C418.776 933.999 418.743 932.042 420.47 931.208C421.972 930.484 421.348 928.521 422.569 927.61C423.153 927.175 423.248 926.642 423.248 926.058C423.248 925.919 423.242 925.777 423.237 925.632C423.231 925.483 423.226 925.332 423.226 925.179C423.226 924.76 423.269 924.329 423.474 923.9L430.604 916.911C430.498 916.545 430.452 916.198 430.452 915.865C430.452 914.816 430.907 913.91 431.368 912.993C431.75 912.231 432.137 911.461 432.271 910.594C433.623 909.125 435.253 907.613 436.543 905.852C437.329 904.781 437.632 903.339 438.062 902.035C438.117 901.868 438.134 901.688 438.134 901.488C438.134 901.336 438.124 901.172 438.113 900.992C438.1 900.774 438.085 900.533 438.085 900.262C440.031 898.765 441.294 896.493 442.56 893.014L442.56 890.274C443.296 888.841 443.821 887.819 444.67 886.17C446.075 884.763 448.005 882.834 449.934 880.905C449.898 880.719 449.881 880.544 449.881 880.379C449.881 879.263 450.654 878.589 451.436 877.907C452.199 877.241 452.971 876.568 453.041 875.47C453.093 874.654 454.039 873.927 454.426 873.09C454.497 872.936 454.52 872.759 454.52 872.572C454.52 872.417 454.504 872.256 454.489 872.094C454.474 871.933 454.459 871.772 454.459 871.617L454.459 870.143C455.259 869.629 456.503 868.831 456.806 868.636C457.168 867.859 457.312 867.253 457.312 866.76C457.312 865.796 456.762 865.264 456.215 864.735C456.12 864.643 456.026 864.552 455.934 864.458C457.708 862.755 459.482 861.053 461.351 859.259L462.932 859.259C463.178 857.944 463.433 856.581 463.718 855.067C464.351 854.935 465.029 854.793 465.782 854.635C466.419 853.999 467.121 853.297 467.914 852.503C467.807 851.899 467.685 851.222 467.506 850.218C466.746 850.827 466.25 851.224 465.724 851.647C465.467 851.41 464.956 851.169 464.913 850.861C464.872 850.576 464.853 850.299 464.853 850.028C464.853 848.096 465.822 846.497 466.914 844.695C467.191 844.237 467.477 843.766 467.756 843.273L467.756 839.445C468.265 838.852 468.734 838.306 469.289 837.661L469.289 834.951C469.483 834.608 469.761 834.316 470.034 834.03C470.497 833.544 470.946 833.073 470.946 832.387C470.946 832.187 470.908 831.969 470.821 831.727C472.754 829.818 474.693 827.902 476.578 826.041C476.777 825.284 476.953 824.613 477.127 823.941C477.989 823.634 478.851 823.328 480.137 822.869C477.308 821.461 476.998 818.653 475.471 816.664L478.189 813.946L478.189 809.308C479.208 808.504 480.366 807.592 481.254 806.892C481.254 803.928 481.254 801.448 481.256 798.969C481.609 798.617 481.959 798.267 482.587 797.638C482.655 796.762 482.746 795.588 482.836 794.413C484.187 793.794 484.252 792.671 484.32 791.523C484.365 790.737 484.412 789.939 484.872 789.283C486.315 787.225 487.262 784.82 488.659 782.108L488.659 779.732C489.178 779.175 489.678 778.639 490.192 778.088L490.192 773.661L491.379 772.474C491.463 770.492 492.219 768.562 493.16 766.69C493.048 766.41 493 766.15 493 765.904C493 765.169 493.43 764.563 493.868 763.948C494.321 763.31 494.781 762.662 494.781 761.846C494.781 761.683 494.763 761.514 494.722 761.336C494.578 760.703 494.533 760.047 494.533 759.373C494.533 758.841 494.561 758.297 494.589 757.743C494.618 757.171 494.648 756.588 494.648 755.998C495.035 755.535 495.492 754.986 496.062 754.303L496.062 750.062C496.577 749.485 497.06 748.944 497.595 748.343L497.595 742.366C499.773 741.141 500.442 738.715 501.963 736.137L502.3 730.291C504.725 729.148 502.449 725.8 505 724.674L505 720.275C505.515 719.701 506.001 719.161 506.532 718.57L506.532 715.708C507.052 715.144 507.549 714.606 508.066 714.045L508.066 711.172C508.595 710.587 509.082 710.048 509.534 709.548L509.534 705.765C510.4 704.122 511.262 702.488 512.403 700.328L512.403 695.077C512.911 694.479 513.375 693.931 513.936 693.271L513.936 688.998C514.453 688.429 514.942 687.89 515.469 687.309L515.469 679.962C515.967 679.413 516.448 678.883 516.907 678.375C516.417 677.828 515.932 677.287 515.344 676.631C515.884 675.384 516.699 674.164 516.898 672.85C517.087 671.6 517.086 670.435 518.282 669.702C517.809 668.93 517.354 668.188 516.73 667.169C517.254 666.455 517.801 665.711 518.452 664.824L518.452 657.541C518.796 657.23 519.161 656.899 519.461 656.627C519.647 656.101 519.91 655.674 519.931 655.234C519.958 654.697 519.965 654.159 519.965 653.627C519.965 653.28 519.962 652.936 519.959 652.596L519.959 652.595C519.956 652.261 519.953 651.931 519.953 651.607C519.537 651.191 519.186 650.84 518.65 650.304L518.65 638.608C517.369 636.786 515.511 635.516 514.127 633.783C514.217 633.568 514.257 633.37 514.257 633.185C514.257 632.549 513.791 632.068 513.321 631.584C512.846 631.094 512.368 630.601 512.368 629.94C512.368 629.742 512.411 629.529 512.51 629.296C511.518 628.219 509.847 627.235 509.683 626.043C509.396 623.95 507.74 623.304 506.709 622.035C505.777 620.886 504.629 619.911 503.578 618.863L503.578 615.881C501.474 613.775 499.369 611.671 497.139 609.442C496.607 609.327 495.929 609.183 495.247 609.037C494.449 607.618 494.103 605.906 492.465 604.818L487.768 604.818C486.547 603.306 485.16 601.588 484.11 600.287C482.903 600.233 482.417 600.211 481.935 600.189C479.474 597.729 477.019 595.274 474.559 592.813L473.057 592.813C472.197 591.938 471.328 591.056 470.24 589.951C469.514 589.905 468.569 589.845 466.871 589.737C466.515 588.905 465.909 587.484 465.678 586.942L461.151 586.942C460.307 585.138 459.451 583.306 458.452 581.172C457.3 580.02 455.897 578.616 454.477 577.196L454.477 568.276C454.796 567.941 455.135 567.585 455.893 566.79C455.968 566.311 455.991 565.789 455.991 565.237C455.991 564.8 455.976 564.343 455.961 563.875C455.945 563.381 455.929 562.875 455.929 562.363C455.929 561.829 455.947 561.289 456.001 560.751C456.352 560.4 456.702 560.049 457.226 559.526C457.433 558.893 457.49 558.226 457.49 557.539C457.49 557.112 457.468 556.676 457.445 556.236C457.422 555.788 457.399 555.335 457.399 554.882C457.399 554.552 457.411 554.221 457.445 553.891C458.502 552.384 458.585 550.181 460.24 549.148C462.068 548.005 461.254 545.281 463.378 544.676L463.378 541.493C464.79 540.667 466.192 539.848 467.191 539.263C467.72 538.514 467.831 537.745 467.831 536.993C467.831 536.718 467.817 536.445 467.802 536.176C467.788 535.914 467.774 535.657 467.774 535.406C467.774 534.644 467.902 533.933 468.541 533.318C469.068 533.79 469.592 534.258 470.247 534.844C470.57 533.915 470.869 533.05 471.169 532.187C472.031 531.879 472.892 531.572 473.699 531.285C473.744 530.652 473.777 530.17 473.814 529.637C473.341 529.126 472.844 528.589 472.217 527.912C473.133 527.599 473.993 527.308 474.852 527.015C475.002 526.139 475.469 525.365 475.927 524.608C476.455 523.733 476.97 522.88 476.97 521.918C476.97 521.535 476.888 521.134 476.692 520.707C479.761 517.638 482.567 514.832 485.592 511.808C485.538 511.549 485.514 511.295 485.514 511.044C485.514 509.951 485.973 508.932 486.447 507.878C486.954 506.75 487.48 505.582 487.48 504.24C487.48 504.089 487.473 503.936 487.459 503.78C488.119 503.644 488.797 503.505 489.656 503.327C490.132 502.96 490.246 502.492 490.246 501.981C490.246 501.75 490.223 501.511 490.199 501.268C490.175 501.018 490.151 500.766 490.151 500.516C490.151 500.331 490.164 500.148 490.201 499.969C490.877 498.458 492.872 497.911 493.174 496.033C493.431 494.435 494.769 493.335 494.817 491.442C494.859 489.781 496.344 488.157 497.327 486.254C497.126 486.005 496.725 485.509 496.315 485C496.735 484.274 497.189 483.512 497.623 482.74C498.073 481.938 498.505 481.125 498.967 480.275L495.396 476.705L492.425 476.705C491.743 476.091 491.576 475.378 491.576 474.636C491.576 474.275 491.615 473.908 491.655 473.541C491.694 473.177 491.734 472.814 491.734 472.459C491.734 472.029 491.676 471.612 491.489 471.222C490.07 470.867 488.798 470.116 487.557 469.383C485.372 468.092 483.28 466.856 480.637 467.932C479.903 467.151 479.784 466.413 479.784 465.721C479.784 465.554 479.791 465.389 479.798 465.226C479.804 465.069 479.811 464.915 479.811 464.763C479.811 464.503 479.792 464.251 479.722 464.007C479.405 463.761 479.128 463.451 478.85 463.142C478.159 462.369 477.467 461.597 476.166 461.815C475.262 460.181 473.049 460.695 472.007 459.274C471.706 458.864 471.312 458.517 470.919 458.17C470.101 457.45 469.282 456.728 469.282 455.43C469.282 455.344 469.285 455.254 469.293 455.162C469.294 455.155 469.294 455.148 469.294 455.141C469.294 454.817 468.706 454.377 468.317 454.113C467.195 453.353 466.028 452.657 464.879 451.936C464.902 451.793 464.913 451.658 464.913 451.53C464.913 450.557 464.271 449.992 463.629 449.428C463.263 449.107 462.897 448.785 462.65 448.388C461.92 447.217 461.361 445.938 460.577 444.415C461.629 443.532 462.922 442.444 464.563 441.064C465.158 441.002 466.331 440.878 467.421 440.764C467.47 440.641 467.525 440.526 467.572 440.427C467.639 440.285 467.692 440.175 467.692 440.119C467.692 440.105 467.689 440.095 467.682 440.088C466.299 438.666 464.891 437.266 463.944 436.319C463.088 434.528 462.495 433.286 461.902 432.044ZM176.699 430.775L176.699 458.107C177.211 458.653 177.71 459.186 178.155 459.661L178.155 472.971C177.618 473.573 177.138 474.112 176.755 474.541C176.636 474.891 176.585 475.227 176.585 475.552C176.585 476.532 177.047 477.415 177.497 478.275C177.926 479.094 178.344 479.894 178.344 480.739C178.344 481.116 178.261 481.502 178.058 481.904C177.472 482.647 177.036 483.202 176.853 483.433L176.853 487.999C177.358 488.502 177.707 488.852 178.187 489.33C178.187 490.125 178.187 490.924 178.187 491.726L178.187 491.739C178.186 492.54 178.186 493.343 178.186 494.149C178.186 497.397 178.188 500.684 178.202 503.971C178.203 504.167 178.435 504.362 178.558 504.558L179.674 505.672L179.673 507.891L179.673 507.898L179.673 510.123C179.673 514.027 179.675 517.956 179.691 521.884C179.692 522.073 179.963 522.259 180.107 522.446C180.457 522.796 180.807 523.145 181.158 523.494C181.158 527.941 181.158 532.387 181.161 536.833C181.659 537.367 182.157 537.901 182.67 538.451L182.67 550.217C183.198 550.801 183.684 551.338 184.194 551.901L184.194 559.211C184.954 559.969 185.653 560.668 186.377 561.391C187.059 560.683 187.743 559.977 188.461 559.232C188.481 558.991 188.506 558.748 188.531 558.504C188.595 557.883 188.66 557.254 188.66 556.627C188.66 555.862 188.564 555.098 188.253 554.351C187.872 553.972 187.523 553.622 187.151 553.251C187.63 552.729 188.108 552.208 188.589 551.683L188.589 544.466C187.947 543.608 187.394 542.869 186.835 542.122C187.472 541.127 187.943 540.392 188.382 539.705C187.923 539.14 187.474 538.591 187.238 538.302L187.238 532.281L188.435 531.086L188.435 515.081C187.663 513.548 187.253 512.732 186.935 512.101C187.175 511.655 187.502 511.297 187.811 510.96C188.283 510.444 188.711 509.976 188.711 509.32C188.711 509.127 188.674 508.918 188.59 508.686C188.099 508.155 187.603 507.62 187.097 507.074L187.097 486.536C186.451 485.662 185.902 484.92 185.362 484.19C185.991 483.186 186.455 482.449 186.813 481.878C186.295 481.016 185.823 480.231 185.424 479.569C186.147 478.517 186.67 477.755 186.93 477.377L186.93 472.812C186.401 472.284 186.052 471.935 185.669 471.553C186.143 471.036 186.619 470.516 187.108 469.982L187.108 467.075C186.595 466.526 186.096 465.993 185.581 465.442L185.581 461.123C185.038 460.507 184.562 459.966 184.216 459.573L184.216 456.664C184.79 455.97 185.244 455.422 185.508 455.103L185.508 440.195L184.086 438.775L184.086 434.059C183.81 434.247 183.534 434.435 183.258 434.622C182.309 433.176 181.362 431.731 180.616 430.591C179.089 430.663 178.133 430.708 176.699 430.775ZM511.236 508.49C511.408 508.803 511.588 509.125 511.766 509.449C511.818 509.397 511.885 509.342 511.953 509.287C512.093 509.172 512.234 509.057 512.234 508.974C512.234 508.969 512.233 508.964 512.232 508.959C512.154 508.61 511.931 508.292 511.766 507.961L511.236 508.49ZM482.121 582.781C481.387 582.422 480.049 581.767 478.676 581.094C478.506 581.741 478.39 582.189 478.166 583.05C479.454 584.163 480.907 585.419 482.577 586.862C482.878 586.769 483.535 586.566 484.152 586.375C483.527 585.27 482.976 584.292 482.121 582.781ZM486.965 590.151C488.971 592.158 490.691 593.878 492.513 595.699C494.447 595.795 494.448 595.794 495.628 595.089L495.63 595.087C493.474 592.93 491.249 590.704 488.941 588.396C487.866 588.654 487.866 588.654 486.965 590.151ZM500.387 598.233C500.215 597.922 500.037 597.598 499.858 597.275C499.807 597.326 499.74 597.381 499.672 597.436C499.532 597.551 499.391 597.666 499.391 597.749C499.391 597.754 499.392 597.758 499.393 597.763C499.471 598.114 499.693 598.432 499.857 598.763L500.387 598.233Z" clip-rule="evenodd" fill="#E6EF61" fill-opacity="1.000000" fill-rule="evenodd"/>
</svg>
